<svg width="70" height="70" viewBox="0 0 70 70" fill="none" xmlns="http://www.w3.org/2000/svg">
<path d="M65.6357 30.6362C65.6357 13.6423 51.7993 -0.119934 34.7775 0.000788207C17.9108 0.12028 4.2199 14.0377 4.36441 30.9043C4.48336 44.7883 13.8387 56.4671 26.5853 60.1003C27.7383 60.429 28.7236 61.1823 29.3224 62.2208L33.2128 68.9677C34.0064 70.3441 35.9927 70.3441 36.7863 68.9677L40.6766 62.2207C41.2752 61.1826 42.2598 60.4291 43.4122 60.1007C56.2414 56.4447 65.6357 44.6384 65.6357 30.6362Z" fill="#E24C4B"/>
<path d="M34.7777 0.000786437C33.7526 0.00803253 32.7395 0.0672318 31.7402 0.174009C47.1264 1.8026 59.115 14.8182 59.115 30.6363C59.115 44.6385 49.7206 56.4447 36.8915 60.1007C35.7391 60.4291 34.7545 61.1826 34.1559 62.2207L31.7393 66.4119L33.2129 68.9677C34.0066 70.3441 35.993 70.3441 36.7865 68.9677L40.6768 62.2207C41.2754 61.1826 42.26 60.4291 43.4124 60.1007C56.2416 56.4447 65.6359 44.6385 65.6359 30.6363C65.6359 13.6423 51.7995 -0.1198 34.7777 0.000786437Z" fill="#D1403F"/>
<path d="M35.8854 47.739H34.114C32.9642 47.739 32.0322 46.8069 32.0322 45.6571V44.2303C32.0322 43.0804 32.9644 42.1484 34.114 42.1484H35.8854C37.0352 42.1484 37.9672 43.0806 37.9672 44.2303V45.6571C37.9672 46.807 37.0352 47.739 35.8854 47.739Z" fill="white"/>
<path d="M35.8857 42.1484H34.1144C34.0467 42.1484 33.9801 42.1523 33.9141 42.1586C34.9698 42.2593 35.7957 43.1481 35.7957 44.2304V45.6572C35.7957 46.7393 34.9698 47.6281 33.9141 47.7289C33.98 47.7352 34.0467 47.739 34.1144 47.739H35.8857C37.0355 47.739 37.9675 46.8069 37.9675 45.6571V44.2303C37.9675 43.0806 37.0355 42.1484 35.8857 42.1484Z" fill="white"/>
<path d="M34.9998 38.3277C33.4939 38.3277 32.273 37.1068 32.273 35.6009V29.6246C32.273 28.1187 33.4939 26.8978 34.9998 26.8978C37.448 26.8978 39.4396 24.9061 39.4396 22.4581C39.4396 20.0099 37.4479 18.0183 34.9998 18.0183C32.5517 18.0183 30.5602 20.01 30.5602 22.4581C30.5602 23.9641 29.3393 25.185 27.8333 25.185C26.3273 25.185 25.1064 23.9641 25.1064 22.4581C25.1064 17.0028 29.5446 12.5645 35 12.5645C40.4553 12.5645 44.8936 17.0028 44.8936 22.4581C44.8936 26.8985 41.9535 30.6649 37.9174 31.9128C37.8042 31.9478 37.727 32.0525 37.727 32.1709V35.601C37.7268 37.1068 36.5059 38.3277 34.9998 38.3277Z" fill="white"/>
<path d="M34.999 18.0173C35.38 18.0173 35.75 18.0657 36.1031 18.1563C35.2911 17.2733 34.1271 16.7188 32.8357 16.7188C30.3876 16.7188 28.396 18.7105 28.396 21.1586C28.396 22.6645 27.1751 23.8854 25.6691 23.8854C25.6147 23.8854 25.5615 23.8804 25.5078 23.8772C25.987 24.6599 26.8475 25.1838 27.8324 25.1838C29.3384 25.1838 30.5593 23.9629 30.5593 22.457C30.5593 20.009 32.551 18.0173 34.999 18.0173Z" fill="white"/>
<path d="M38.9502 13.3887C41.2494 15.202 42.7296 18.0095 42.7296 21.1581C42.7296 25.2647 40.2148 28.795 36.6442 30.2894C35.9872 30.5644 35.563 31.2106 35.563 31.9228V34.3009C35.563 35.8069 34.3421 37.0278 32.8361 37.0278C32.7817 37.0278 32.7285 37.0227 32.6748 37.0197C33.1494 37.7946 33.9976 38.3161 34.9704 38.3262C36.4862 38.342 37.7263 37.0485 37.7263 35.5327V32.1695C37.7263 32.0509 37.8035 31.9463 37.9167 31.9113C41.9528 30.6636 44.893 26.897 44.893 22.4567C44.893 18.4056 42.4443 14.9171 38.9502 13.3887Z" fill="white"/>
</svg>
