<svg width="26" height="26" viewBox="0 0 26 26" fill="none" xmlns="http://www.w3.org/2000/svg">
<path d="M12.8978 0.816406C16.2374 0.816406 19.4403 2.14307 21.8017 4.50455C24.1632 6.86603 25.4899 10.0689 25.4899 13.4085C25.4899 16.7481 24.1632 19.951 21.8017 22.3125C19.4403 24.674 16.2374 26.0006 12.8978 26.0006C9.55814 26.0006 6.35528 24.674 3.99381 22.3125C1.63233 19.951 0.305664 16.7481 0.305664 13.4085C0.305664 10.0689 1.63233 6.86603 3.99381 4.50455C6.35528 2.14307 9.55814 0.816406 12.8978 0.816406ZM12.8978 11.8813L9.9728 8.9563C9.77028 8.75378 9.49559 8.64 9.20918 8.64C8.92277 8.64 8.64809 8.75378 8.44556 8.9563C8.24304 9.15883 8.12926 9.43351 8.12926 9.71992C8.12926 10.0063 8.24304 10.281 8.44556 10.4835L11.3705 13.4085L8.44556 16.3335C8.34528 16.4338 8.26573 16.5528 8.21146 16.6838C8.15719 16.8149 8.12926 16.9553 8.12926 17.0971C8.12926 17.2389 8.15719 17.3793 8.21146 17.5104C8.26573 17.6414 8.34528 17.7604 8.44556 17.8607C8.54584 17.961 8.66489 18.0405 8.79591 18.0948C8.92694 18.1491 9.06736 18.177 9.20918 18.177C9.351 18.177 9.49143 18.1491 9.62245 18.0948C9.75347 18.0405 9.87252 17.961 9.9728 17.8607L12.8978 14.9358L15.8227 17.8607C15.923 17.961 16.0421 18.0405 16.1731 18.0948C16.3041 18.1491 16.4445 18.177 16.5864 18.177C16.7282 18.177 16.8686 18.1491 16.9996 18.0948C17.1306 18.0405 17.2497 17.961 17.35 17.8607C17.4503 17.7604 17.5298 17.6414 17.5841 17.5104C17.6383 17.3793 17.6663 17.2389 17.6663 17.0971C17.6663 16.9553 17.6383 16.8149 17.5841 16.6838C17.5298 16.5528 17.4503 16.4338 17.35 16.3335L14.425 13.4085L17.35 10.4835C17.4503 10.3833 17.5298 10.2642 17.5841 10.1332C17.6383 10.0022 17.6663 9.86174 17.6663 9.71992C17.6663 9.57811 17.6383 9.43768 17.5841 9.30665C17.5298 9.17563 17.4503 9.05658 17.35 8.9563C17.2497 8.85602 17.1306 8.77648 16.9996 8.7222C16.8686 8.66793 16.7282 8.64 16.5864 8.64C16.4445 8.64 16.3041 8.66793 16.1731 8.7222C16.0421 8.77648 15.923 8.85602 15.8227 8.9563L12.8978 11.8813Z" fill="black"/>
</svg>
